<mxfile host="app.diagrams.net" modified="2023-04-18T07:58:40.938Z" agent="Mozilla/5.0 (X11; Linux x86_64) AppleWebKit/537.36 (KHTML, like Gecko) Chrome/98.0.4758.102 Safari/537.36" etag="UHxOiNAxaHco--Y-ypWc" version="21.1.8" type="github">
  <diagram id="C5RBs43oDa-KdzZeNtuy" name="Page-1">
    <mxGraphModel dx="1618" dy="912" grid="1" gridSize="10" guides="1" tooltips="1" connect="1" arrows="1" fold="1" page="1" pageScale="1" pageWidth="1169" pageHeight="827" math="0" shadow="0">
      <root>
        <mxCell id="WIyWlLk6GJQsqaUBKTNV-0" />
        <mxCell id="WIyWlLk6GJQsqaUBKTNV-1" parent="WIyWlLk6GJQsqaUBKTNV-0" />
        <mxCell id="VPyf_NganPNjQ0OQ-j9U-152" value="基于车辆位置四元数计算&lt;br&gt;pitch" style="rounded=0;whiteSpace=wrap;html=1;" vertex="1" parent="WIyWlLk6GJQsqaUBKTNV-1">
          <mxGeometry x="151" y="980" width="160" height="60" as="geometry" />
        </mxCell>
        <mxCell id="WIyWlLk6GJQsqaUBKTNV-2" value="" style="rounded=0;html=1;jettySize=auto;orthogonalLoop=1;fontSize=11;endArrow=block;endFill=0;endSize=8;strokeWidth=1;shadow=0;labelBackgroundColor=none;edgeStyle=orthogonalEdgeStyle;" parent="WIyWlLk6GJQsqaUBKTNV-1" source="WIyWlLk6GJQsqaUBKTNV-3" target="WIyWlLk6GJQsqaUBKTNV-6" edge="1">
          <mxGeometry relative="1" as="geometry" />
        </mxCell>
        <mxCell id="WIyWlLk6GJQsqaUBKTNV-3" value="Lamp doesn&#39;t work" style="rounded=1;whiteSpace=wrap;html=1;fontSize=12;glass=0;strokeWidth=1;shadow=0;" parent="WIyWlLk6GJQsqaUBKTNV-1" vertex="1">
          <mxGeometry x="80" y="120" width="120" height="40" as="geometry" />
        </mxCell>
        <mxCell id="WIyWlLk6GJQsqaUBKTNV-4" value="Yes" style="rounded=0;html=1;jettySize=auto;orthogonalLoop=1;fontSize=11;endArrow=block;endFill=0;endSize=8;strokeWidth=1;shadow=0;labelBackgroundColor=none;edgeStyle=orthogonalEdgeStyle;" parent="WIyWlLk6GJQsqaUBKTNV-1" source="WIyWlLk6GJQsqaUBKTNV-6" target="WIyWlLk6GJQsqaUBKTNV-10" edge="1">
          <mxGeometry y="20" relative="1" as="geometry">
            <mxPoint as="offset" />
          </mxGeometry>
        </mxCell>
        <mxCell id="WIyWlLk6GJQsqaUBKTNV-5" value="No" style="edgeStyle=orthogonalEdgeStyle;rounded=0;html=1;jettySize=auto;orthogonalLoop=1;fontSize=11;endArrow=block;endFill=0;endSize=8;strokeWidth=1;shadow=0;labelBackgroundColor=none;" parent="WIyWlLk6GJQsqaUBKTNV-1" source="WIyWlLk6GJQsqaUBKTNV-6" target="WIyWlLk6GJQsqaUBKTNV-7" edge="1">
          <mxGeometry y="10" relative="1" as="geometry">
            <mxPoint as="offset" />
          </mxGeometry>
        </mxCell>
        <mxCell id="WIyWlLk6GJQsqaUBKTNV-6" value="Lamp&lt;br&gt;plugged in?" style="rhombus;whiteSpace=wrap;html=1;shadow=0;fontFamily=Helvetica;fontSize=12;align=center;strokeWidth=1;spacing=6;spacingTop=-4;" parent="WIyWlLk6GJQsqaUBKTNV-1" vertex="1">
          <mxGeometry x="830" y="340" width="100" height="80" as="geometry" />
        </mxCell>
        <mxCell id="WIyWlLk6GJQsqaUBKTNV-7" value="Plug in lamp" style="rounded=1;whiteSpace=wrap;html=1;fontSize=12;glass=0;strokeWidth=1;shadow=0;" parent="WIyWlLk6GJQsqaUBKTNV-1" vertex="1">
          <mxGeometry x="980" y="360" width="120" height="40" as="geometry" />
        </mxCell>
        <mxCell id="WIyWlLk6GJQsqaUBKTNV-8" value="No" style="rounded=0;html=1;jettySize=auto;orthogonalLoop=1;fontSize=11;endArrow=block;endFill=0;endSize=8;strokeWidth=1;shadow=0;labelBackgroundColor=none;edgeStyle=orthogonalEdgeStyle;" parent="WIyWlLk6GJQsqaUBKTNV-1" source="WIyWlLk6GJQsqaUBKTNV-10" target="WIyWlLk6GJQsqaUBKTNV-11" edge="1">
          <mxGeometry x="0.3333" y="20" relative="1" as="geometry">
            <mxPoint as="offset" />
          </mxGeometry>
        </mxCell>
        <mxCell id="WIyWlLk6GJQsqaUBKTNV-9" value="Yes" style="edgeStyle=orthogonalEdgeStyle;rounded=0;html=1;jettySize=auto;orthogonalLoop=1;fontSize=11;endArrow=block;endFill=0;endSize=8;strokeWidth=1;shadow=0;labelBackgroundColor=none;" parent="WIyWlLk6GJQsqaUBKTNV-1" source="WIyWlLk6GJQsqaUBKTNV-10" target="WIyWlLk6GJQsqaUBKTNV-12" edge="1">
          <mxGeometry y="10" relative="1" as="geometry">
            <mxPoint as="offset" />
          </mxGeometry>
        </mxCell>
        <mxCell id="WIyWlLk6GJQsqaUBKTNV-10" value="Bulb&lt;br&gt;burned out?" style="rhombus;whiteSpace=wrap;html=1;shadow=0;fontFamily=Helvetica;fontSize=12;align=center;strokeWidth=1;spacing=6;spacingTop=-4;" parent="WIyWlLk6GJQsqaUBKTNV-1" vertex="1">
          <mxGeometry x="830" y="460" width="100" height="80" as="geometry" />
        </mxCell>
        <mxCell id="WIyWlLk6GJQsqaUBKTNV-11" value="Repair Lamp" style="rounded=1;whiteSpace=wrap;html=1;fontSize=12;glass=0;strokeWidth=1;shadow=0;" parent="WIyWlLk6GJQsqaUBKTNV-1" vertex="1">
          <mxGeometry x="820" y="600" width="120" height="40" as="geometry" />
        </mxCell>
        <mxCell id="WIyWlLk6GJQsqaUBKTNV-12" value="Replace Bulb" style="rounded=1;whiteSpace=wrap;html=1;fontSize=12;glass=0;strokeWidth=1;shadow=0;" parent="WIyWlLk6GJQsqaUBKTNV-1" vertex="1">
          <mxGeometry x="980" y="480" width="120" height="40" as="geometry" />
        </mxCell>
        <mxCell id="VPyf_NganPNjQ0OQ-j9U-11" value="" style="rounded=0;whiteSpace=wrap;html=1;" vertex="1" parent="WIyWlLk6GJQsqaUBKTNV-1">
          <mxGeometry x="601" y="920" width="360" height="260" as="geometry" />
        </mxCell>
        <mxCell id="VPyf_NganPNjQ0OQ-j9U-12" value="" style="rounded=0;whiteSpace=wrap;html=1;" vertex="1" parent="WIyWlLk6GJQsqaUBKTNV-1">
          <mxGeometry x="131" y="1230" width="250" height="270" as="geometry" />
        </mxCell>
        <mxCell id="VPyf_NganPNjQ0OQ-j9U-13" value="" style="rounded=0;whiteSpace=wrap;html=1;" vertex="1" parent="WIyWlLk6GJQsqaUBKTNV-1">
          <mxGeometry x="601" y="1230" width="360" height="270" as="geometry" />
        </mxCell>
        <mxCell id="VPyf_NganPNjQ0OQ-j9U-14" style="edgeStyle=orthogonalEdgeStyle;rounded=0;orthogonalLoop=1;jettySize=auto;html=1;exitX=1;exitY=0.75;exitDx=0;exitDy=0;entryX=0;entryY=0.5;entryDx=0;entryDy=0;endSize=3;" edge="1" parent="WIyWlLk6GJQsqaUBKTNV-1" source="VPyf_NganPNjQ0OQ-j9U-103" target="VPyf_NganPNjQ0OQ-j9U-17">
          <mxGeometry relative="1" as="geometry">
            <Array as="points">
              <mxPoint x="331" y="1328" />
              <mxPoint x="331" y="1380" />
            </Array>
          </mxGeometry>
        </mxCell>
        <mxCell id="VPyf_NganPNjQ0OQ-j9U-15" style="edgeStyle=orthogonalEdgeStyle;rounded=0;orthogonalLoop=1;jettySize=auto;html=1;exitX=1;exitY=0.5;exitDx=0;exitDy=0;startArrow=none;startFill=0;endArrow=classic;endFill=1;entryX=0;entryY=0.5;entryDx=0;entryDy=0;" edge="1" parent="WIyWlLk6GJQsqaUBKTNV-1" source="VPyf_NganPNjQ0OQ-j9U-20" target="VPyf_NganPNjQ0OQ-j9U-23">
          <mxGeometry relative="1" as="geometry">
            <mxPoint x="1191" y="1380" as="targetPoint" />
          </mxGeometry>
        </mxCell>
        <mxCell id="VPyf_NganPNjQ0OQ-j9U-16" style="edgeStyle=orthogonalEdgeStyle;rounded=0;orthogonalLoop=1;jettySize=auto;html=1;exitX=1;exitY=0.5;exitDx=0;exitDy=0;startArrow=none;startFill=0;endArrow=none;endFill=0;endSize=3;entryX=0.5;entryY=1;entryDx=0;entryDy=0;" edge="1" parent="WIyWlLk6GJQsqaUBKTNV-1" source="VPyf_NganPNjQ0OQ-j9U-135" target="VPyf_NganPNjQ0OQ-j9U-61">
          <mxGeometry relative="1" as="geometry">
            <mxPoint x="561" y="1380" as="targetPoint" />
          </mxGeometry>
        </mxCell>
        <mxCell id="VPyf_NganPNjQ0OQ-j9U-17" value="" style="ellipse;whiteSpace=wrap;html=1;aspect=fixed;" vertex="1" parent="WIyWlLk6GJQsqaUBKTNV-1">
          <mxGeometry x="541" y="1375" width="10" height="10" as="geometry" />
        </mxCell>
        <mxCell id="VPyf_NganPNjQ0OQ-j9U-18" value="" style="endArrow=classic;html=1;entryX=0;entryY=0.5;entryDx=0;entryDy=0;endSize=3;" edge="1" parent="WIyWlLk6GJQsqaUBKTNV-1" target="VPyf_NganPNjQ0OQ-j9U-103">
          <mxGeometry width="50" height="50" relative="1" as="geometry">
            <mxPoint x="41" y="1310" as="sourcePoint" />
            <mxPoint x="451" y="1380" as="targetPoint" />
          </mxGeometry>
        </mxCell>
        <mxCell id="VPyf_NganPNjQ0OQ-j9U-19" value="基于预测的参考点速度" style="text;html=1;strokeColor=none;fillColor=none;align=left;verticalAlign=middle;whiteSpace=wrap;rounded=0;" vertex="1" parent="WIyWlLk6GJQsqaUBKTNV-1">
          <mxGeometry x="397" y="1350" width="70" height="20" as="geometry" />
        </mxCell>
        <mxCell id="VPyf_NganPNjQ0OQ-j9U-20" value="" style="ellipse;whiteSpace=wrap;html=1;aspect=fixed;" vertex="1" parent="WIyWlLk6GJQsqaUBKTNV-1">
          <mxGeometry x="1091" y="1375" width="10" height="10" as="geometry" />
        </mxCell>
        <mxCell id="VPyf_NganPNjQ0OQ-j9U-21" value="基于预测的参考点加速度" style="text;html=1;strokeColor=none;fillColor=none;align=left;verticalAlign=middle;whiteSpace=wrap;rounded=0;" vertex="1" parent="WIyWlLk6GJQsqaUBKTNV-1">
          <mxGeometry x="397" y="1261.25" width="74" height="20" as="geometry" />
        </mxCell>
        <mxCell id="VPyf_NganPNjQ0OQ-j9U-22" style="edgeStyle=orthogonalEdgeStyle;rounded=0;orthogonalLoop=1;jettySize=auto;html=1;entryX=1;entryY=0.5;entryDx=0;entryDy=0;exitX=0.5;exitY=1;exitDx=0;exitDy=0;" edge="1" parent="WIyWlLk6GJQsqaUBKTNV-1" source="VPyf_NganPNjQ0OQ-j9U-23" target="VPyf_NganPNjQ0OQ-j9U-108">
          <mxGeometry relative="1" as="geometry">
            <mxPoint x="1171" y="1380" as="targetPoint" />
            <mxPoint x="1160" y="1390" as="sourcePoint" />
            <Array as="points">
              <mxPoint x="1160" y="1385" />
              <mxPoint x="1160" y="1570" />
            </Array>
          </mxGeometry>
        </mxCell>
        <mxCell id="VPyf_NganPNjQ0OQ-j9U-23" value="" style="ellipse;whiteSpace=wrap;html=1;aspect=fixed;" vertex="1" parent="WIyWlLk6GJQsqaUBKTNV-1">
          <mxGeometry x="1156" y="1375" width="10" height="10" as="geometry" />
        </mxCell>
        <mxCell id="VPyf_NganPNjQ0OQ-j9U-24" value="" style="endArrow=classic;html=1;entryX=0.5;entryY=0;entryDx=0;entryDy=0;rounded=0;exitX=1;exitY=0.5;exitDx=0;exitDy=0;endSize=3;" edge="1" parent="WIyWlLk6GJQsqaUBKTNV-1" source="VPyf_NganPNjQ0OQ-j9U-25">
          <mxGeometry width="50" height="50" relative="1" as="geometry">
            <mxPoint x="896" y="1010" as="sourcePoint" />
            <mxPoint x="1161" y="1375" as="targetPoint" />
            <Array as="points">
              <mxPoint x="1160" y="1010" />
            </Array>
          </mxGeometry>
        </mxCell>
        <mxCell id="VPyf_NganPNjQ0OQ-j9U-25" value="斜坡分量补偿公式&lt;br&gt;g * sin(pitch)" style="rounded=0;whiteSpace=wrap;html=1;" vertex="1" parent="WIyWlLk6GJQsqaUBKTNV-1">
          <mxGeometry x="793" y="980" width="140" height="60" as="geometry" />
        </mxCell>
        <mxCell id="VPyf_NganPNjQ0OQ-j9U-26" value="" style="endArrow=classic;html=1;entryX=0;entryY=0.5;entryDx=0;entryDy=0;" edge="1" parent="WIyWlLk6GJQsqaUBKTNV-1" target="VPyf_NganPNjQ0OQ-j9U-83">
          <mxGeometry width="50" height="50" relative="1" as="geometry">
            <mxPoint x="311" y="1010" as="sourcePoint" />
            <mxPoint x="415" y="1009" as="targetPoint" />
          </mxGeometry>
        </mxCell>
        <mxCell id="VPyf_NganPNjQ0OQ-j9U-27" value="斜坡角度" style="text;html=1;strokeColor=none;fillColor=none;align=center;verticalAlign=middle;whiteSpace=wrap;rounded=0;" vertex="1" parent="WIyWlLk6GJQsqaUBKTNV-1">
          <mxGeometry x="51" y="975" width="50" height="20" as="geometry" />
        </mxCell>
        <mxCell id="VPyf_NganPNjQ0OQ-j9U-28" style="edgeStyle=orthogonalEdgeStyle;rounded=0;orthogonalLoop=1;jettySize=auto;html=1;exitX=1;exitY=0.5;exitDx=0;exitDy=0;startArrow=none;startFill=0;endArrow=classic;endFill=1;endSize=3;entryX=0;entryY=0.5;entryDx=0;entryDy=0;" edge="1" parent="WIyWlLk6GJQsqaUBKTNV-1" source="VPyf_NganPNjQ0OQ-j9U-29" target="VPyf_NganPNjQ0OQ-j9U-41">
          <mxGeometry relative="1" as="geometry">
            <mxPoint x="821" y="1310" as="targetPoint" />
          </mxGeometry>
        </mxCell>
        <mxCell id="VPyf_NganPNjQ0OQ-j9U-29" value="P" style="rounded=0;whiteSpace=wrap;html=1;" vertex="1" parent="WIyWlLk6GJQsqaUBKTNV-1">
          <mxGeometry x="775" y="1290" width="30" height="30" as="geometry" />
        </mxCell>
        <mxCell id="VPyf_NganPNjQ0OQ-j9U-30" style="edgeStyle=orthogonalEdgeStyle;rounded=0;orthogonalLoop=1;jettySize=auto;html=1;exitX=1;exitY=0.5;exitDx=0;exitDy=0;entryX=0;entryY=0.5;entryDx=0;entryDy=0;startArrow=none;startFill=0;endArrow=classic;endFill=1;endSize=3;" edge="1" parent="WIyWlLk6GJQsqaUBKTNV-1" source="VPyf_NganPNjQ0OQ-j9U-31" target="VPyf_NganPNjQ0OQ-j9U-47">
          <mxGeometry relative="1" as="geometry" />
        </mxCell>
        <mxCell id="VPyf_NganPNjQ0OQ-j9U-31" value="I" style="rounded=0;whiteSpace=wrap;html=1;" vertex="1" parent="WIyWlLk6GJQsqaUBKTNV-1">
          <mxGeometry x="775" y="1365" width="30" height="30" as="geometry" />
        </mxCell>
        <mxCell id="VPyf_NganPNjQ0OQ-j9U-32" style="edgeStyle=orthogonalEdgeStyle;rounded=0;orthogonalLoop=1;jettySize=auto;html=1;exitX=1;exitY=0.5;exitDx=0;exitDy=0;entryX=0;entryY=0.5;entryDx=0;entryDy=0;startArrow=none;startFill=0;endArrow=classic;endFill=1;endSize=3;" edge="1" parent="WIyWlLk6GJQsqaUBKTNV-1" source="VPyf_NganPNjQ0OQ-j9U-33" target="VPyf_NganPNjQ0OQ-j9U-53">
          <mxGeometry relative="1" as="geometry" />
        </mxCell>
        <mxCell id="VPyf_NganPNjQ0OQ-j9U-33" value="D" style="rounded=0;whiteSpace=wrap;html=1;" vertex="1" parent="WIyWlLk6GJQsqaUBKTNV-1">
          <mxGeometry x="775" y="1435" width="30" height="30" as="geometry" />
        </mxCell>
        <mxCell id="VPyf_NganPNjQ0OQ-j9U-34" style="edgeStyle=orthogonalEdgeStyle;rounded=0;orthogonalLoop=1;jettySize=auto;html=1;exitX=1;exitY=0.5;exitDx=0;exitDy=0;entryX=0;entryY=0.5;entryDx=0;entryDy=0;startArrow=none;startFill=0;endArrow=classic;endFill=1;endSize=3;" edge="1" parent="WIyWlLk6GJQsqaUBKTNV-1" source="VPyf_NganPNjQ0OQ-j9U-35" target="VPyf_NganPNjQ0OQ-j9U-31">
          <mxGeometry relative="1" as="geometry" />
        </mxCell>
        <mxCell id="VPyf_NganPNjQ0OQ-j9U-35" value="∫" style="rounded=0;whiteSpace=wrap;html=1;" vertex="1" parent="WIyWlLk6GJQsqaUBKTNV-1">
          <mxGeometry x="675" y="1365" width="30" height="30" as="geometry" />
        </mxCell>
        <mxCell id="VPyf_NganPNjQ0OQ-j9U-36" value="" style="edgeStyle=orthogonalEdgeStyle;rounded=0;orthogonalLoop=1;jettySize=auto;html=1;startArrow=none;startFill=0;endArrow=classic;endFill=1;endSize=3;" edge="1" parent="WIyWlLk6GJQsqaUBKTNV-1" source="VPyf_NganPNjQ0OQ-j9U-37">
          <mxGeometry relative="1" as="geometry">
            <mxPoint x="725" y="1450" as="targetPoint" />
          </mxGeometry>
        </mxCell>
        <mxCell id="VPyf_NganPNjQ0OQ-j9U-37" value="d/dt" style="rounded=0;whiteSpace=wrap;html=1;" vertex="1" parent="WIyWlLk6GJQsqaUBKTNV-1">
          <mxGeometry x="675" y="1435" width="30" height="30" as="geometry" />
        </mxCell>
        <mxCell id="VPyf_NganPNjQ0OQ-j9U-38" style="edgeStyle=orthogonalEdgeStyle;rounded=0;orthogonalLoop=1;jettySize=auto;html=1;exitX=1;exitY=0.5;exitDx=0;exitDy=0;entryX=0;entryY=0.5;entryDx=0;entryDy=0;startArrow=none;startFill=0;endArrow=classic;endFill=1;endSize=3;" edge="1" parent="WIyWlLk6GJQsqaUBKTNV-1" source="VPyf_NganPNjQ0OQ-j9U-146" target="VPyf_NganPNjQ0OQ-j9U-33">
          <mxGeometry relative="1" as="geometry">
            <mxPoint x="755" y="1450" as="sourcePoint" />
            <Array as="points">
              <mxPoint x="761" y="1450" />
              <mxPoint x="761" y="1450" />
            </Array>
          </mxGeometry>
        </mxCell>
        <mxCell id="VPyf_NganPNjQ0OQ-j9U-40" value="" style="group" vertex="1" connectable="0" parent="WIyWlLk6GJQsqaUBKTNV-1">
          <mxGeometry x="835" y="1290" width="30" height="30" as="geometry" />
        </mxCell>
        <mxCell id="VPyf_NganPNjQ0OQ-j9U-41" value="" style="rounded=0;whiteSpace=wrap;html=1;" vertex="1" parent="VPyf_NganPNjQ0OQ-j9U-40">
          <mxGeometry width="30" height="30" as="geometry" />
        </mxCell>
        <mxCell id="VPyf_NganPNjQ0OQ-j9U-42" value="" style="group" vertex="1" connectable="0" parent="VPyf_NganPNjQ0OQ-j9U-40">
          <mxGeometry x="10.830000000000041" y="2.5" width="8.34" height="25" as="geometry" />
        </mxCell>
        <mxCell id="VPyf_NganPNjQ0OQ-j9U-43" value="" style="endArrow=classic;html=1;endSize=3;" edge="1" parent="VPyf_NganPNjQ0OQ-j9U-42">
          <mxGeometry width="50" height="50" relative="1" as="geometry">
            <mxPoint x="4.17" y="25" as="sourcePoint" />
            <mxPoint x="4.17" as="targetPoint" />
          </mxGeometry>
        </mxCell>
        <mxCell id="VPyf_NganPNjQ0OQ-j9U-44" value="" style="endArrow=classic;html=1;endSize=3;" edge="1" parent="VPyf_NganPNjQ0OQ-j9U-42">
          <mxGeometry width="50" height="50" relative="1" as="geometry">
            <mxPoint x="-8.34" y="12.5" as="sourcePoint" />
            <mxPoint x="16.68" y="12.5" as="targetPoint" />
            <Array as="points">
              <mxPoint x="8.34" y="12.5" />
            </Array>
          </mxGeometry>
        </mxCell>
        <mxCell id="VPyf_NganPNjQ0OQ-j9U-45" value="" style="endArrow=none;html=1;rounded=0;" edge="1" parent="VPyf_NganPNjQ0OQ-j9U-42">
          <mxGeometry width="50" height="50" relative="1" as="geometry">
            <mxPoint x="-8.34" y="20.833333333333336" as="sourcePoint" />
            <mxPoint x="16.68" y="4.166666666666667" as="targetPoint" />
            <Array as="points">
              <mxPoint y="20.833333333333336" />
              <mxPoint x="8.34" y="4.166666666666667" />
            </Array>
          </mxGeometry>
        </mxCell>
        <mxCell id="VPyf_NganPNjQ0OQ-j9U-46" value="" style="group" vertex="1" connectable="0" parent="WIyWlLk6GJQsqaUBKTNV-1">
          <mxGeometry x="835" y="1365" width="30" height="30" as="geometry" />
        </mxCell>
        <mxCell id="VPyf_NganPNjQ0OQ-j9U-47" value="" style="rounded=0;whiteSpace=wrap;html=1;" vertex="1" parent="VPyf_NganPNjQ0OQ-j9U-46">
          <mxGeometry width="30" height="30" as="geometry" />
        </mxCell>
        <mxCell id="VPyf_NganPNjQ0OQ-j9U-48" value="" style="group" vertex="1" connectable="0" parent="VPyf_NganPNjQ0OQ-j9U-46">
          <mxGeometry x="10.830000000000041" y="2.5" width="8.34" height="25" as="geometry" />
        </mxCell>
        <mxCell id="VPyf_NganPNjQ0OQ-j9U-49" value="" style="endArrow=classic;html=1;endSize=3;" edge="1" parent="VPyf_NganPNjQ0OQ-j9U-48">
          <mxGeometry width="50" height="50" relative="1" as="geometry">
            <mxPoint x="4.17" y="25" as="sourcePoint" />
            <mxPoint x="4.17" as="targetPoint" />
          </mxGeometry>
        </mxCell>
        <mxCell id="VPyf_NganPNjQ0OQ-j9U-50" value="" style="endArrow=classic;html=1;endSize=3;" edge="1" parent="VPyf_NganPNjQ0OQ-j9U-48">
          <mxGeometry width="50" height="50" relative="1" as="geometry">
            <mxPoint x="-8.34" y="12.5" as="sourcePoint" />
            <mxPoint x="16.68" y="12.5" as="targetPoint" />
            <Array as="points">
              <mxPoint x="8.34" y="12.5" />
            </Array>
          </mxGeometry>
        </mxCell>
        <mxCell id="VPyf_NganPNjQ0OQ-j9U-51" value="" style="endArrow=none;html=1;rounded=0;" edge="1" parent="VPyf_NganPNjQ0OQ-j9U-48">
          <mxGeometry width="50" height="50" relative="1" as="geometry">
            <mxPoint x="-8.34" y="20.833333333333336" as="sourcePoint" />
            <mxPoint x="16.68" y="4.166666666666667" as="targetPoint" />
            <Array as="points">
              <mxPoint y="20.833333333333336" />
              <mxPoint x="8.34" y="4.166666666666667" />
            </Array>
          </mxGeometry>
        </mxCell>
        <mxCell id="VPyf_NganPNjQ0OQ-j9U-52" value="" style="group" vertex="1" connectable="0" parent="WIyWlLk6GJQsqaUBKTNV-1">
          <mxGeometry x="835" y="1435" width="30" height="30" as="geometry" />
        </mxCell>
        <mxCell id="VPyf_NganPNjQ0OQ-j9U-53" value="" style="rounded=0;whiteSpace=wrap;html=1;" vertex="1" parent="VPyf_NganPNjQ0OQ-j9U-52">
          <mxGeometry width="30" height="30" as="geometry" />
        </mxCell>
        <mxCell id="VPyf_NganPNjQ0OQ-j9U-54" value="" style="group" vertex="1" connectable="0" parent="VPyf_NganPNjQ0OQ-j9U-52">
          <mxGeometry x="10.830000000000041" y="2.5" width="8.34" height="25" as="geometry" />
        </mxCell>
        <mxCell id="VPyf_NganPNjQ0OQ-j9U-55" value="" style="endArrow=classic;html=1;endSize=3;" edge="1" parent="VPyf_NganPNjQ0OQ-j9U-54">
          <mxGeometry width="50" height="50" relative="1" as="geometry">
            <mxPoint x="4.17" y="25" as="sourcePoint" />
            <mxPoint x="4.17" as="targetPoint" />
          </mxGeometry>
        </mxCell>
        <mxCell id="VPyf_NganPNjQ0OQ-j9U-56" value="" style="endArrow=classic;html=1;endSize=3;" edge="1" parent="VPyf_NganPNjQ0OQ-j9U-54">
          <mxGeometry width="50" height="50" relative="1" as="geometry">
            <mxPoint x="-8.34" y="12.5" as="sourcePoint" />
            <mxPoint x="16.68" y="12.5" as="targetPoint" />
            <Array as="points">
              <mxPoint x="8.34" y="12.5" />
            </Array>
          </mxGeometry>
        </mxCell>
        <mxCell id="VPyf_NganPNjQ0OQ-j9U-57" value="" style="endArrow=none;html=1;rounded=0;" edge="1" parent="VPyf_NganPNjQ0OQ-j9U-54">
          <mxGeometry width="50" height="50" relative="1" as="geometry">
            <mxPoint x="-8.34" y="20.833333333333336" as="sourcePoint" />
            <mxPoint x="16.68" y="4.166666666666667" as="targetPoint" />
            <Array as="points">
              <mxPoint y="20.833333333333336" />
              <mxPoint x="8.34" y="4.166666666666667" />
            </Array>
          </mxGeometry>
        </mxCell>
        <mxCell id="VPyf_NganPNjQ0OQ-j9U-58" style="edgeStyle=orthogonalEdgeStyle;rounded=0;orthogonalLoop=1;jettySize=auto;html=1;exitX=0;exitY=0.5;exitDx=0;exitDy=0;entryX=0;entryY=0.5;entryDx=0;entryDy=0;startArrow=none;startFill=0;endArrow=classic;endFill=1;endSize=3;" edge="1" parent="WIyWlLk6GJQsqaUBKTNV-1" source="VPyf_NganPNjQ0OQ-j9U-61" target="VPyf_NganPNjQ0OQ-j9U-29">
          <mxGeometry relative="1" as="geometry">
            <Array as="points">
              <mxPoint x="632" y="1370" />
              <mxPoint x="631" y="1370" />
              <mxPoint x="631" y="1305" />
            </Array>
          </mxGeometry>
        </mxCell>
        <mxCell id="VPyf_NganPNjQ0OQ-j9U-59" style="edgeStyle=orthogonalEdgeStyle;rounded=0;orthogonalLoop=1;jettySize=auto;html=1;exitX=0.5;exitY=0;exitDx=0;exitDy=0;entryX=0;entryY=0.5;entryDx=0;entryDy=0;startArrow=none;startFill=0;endArrow=classic;endFill=1;endSize=3;" edge="1" parent="WIyWlLk6GJQsqaUBKTNV-1" source="VPyf_NganPNjQ0OQ-j9U-61" target="VPyf_NganPNjQ0OQ-j9U-35">
          <mxGeometry relative="1" as="geometry" />
        </mxCell>
        <mxCell id="VPyf_NganPNjQ0OQ-j9U-60" style="edgeStyle=orthogonalEdgeStyle;rounded=0;orthogonalLoop=1;jettySize=auto;html=1;exitX=1;exitY=0.5;exitDx=0;exitDy=0;entryX=0;entryY=0.5;entryDx=0;entryDy=0;startArrow=none;startFill=0;endArrow=classic;endFill=1;endSize=3;" edge="1" parent="WIyWlLk6GJQsqaUBKTNV-1" source="VPyf_NganPNjQ0OQ-j9U-61" target="VPyf_NganPNjQ0OQ-j9U-37">
          <mxGeometry relative="1" as="geometry" />
        </mxCell>
        <mxCell id="VPyf_NganPNjQ0OQ-j9U-61" value="" style="ellipse;whiteSpace=wrap;html=1;aspect=fixed;fillColor=#000000;direction=south;" vertex="1" parent="WIyWlLk6GJQsqaUBKTNV-1">
          <mxGeometry x="628" y="1376.5" width="7" height="7" as="geometry" />
        </mxCell>
        <mxCell id="VPyf_NganPNjQ0OQ-j9U-62" style="edgeStyle=orthogonalEdgeStyle;rounded=0;orthogonalLoop=1;jettySize=auto;html=1;exitX=1;exitY=0.5;exitDx=0;exitDy=0;entryX=0;entryY=0.5;entryDx=0;entryDy=0;startArrow=none;startFill=0;endArrow=classic;endFill=1;endSize=3;" edge="1" parent="WIyWlLk6GJQsqaUBKTNV-1" source="VPyf_NganPNjQ0OQ-j9U-63" target="VPyf_NganPNjQ0OQ-j9U-20">
          <mxGeometry relative="1" as="geometry" />
        </mxCell>
        <mxCell id="VPyf_NganPNjQ0OQ-j9U-63" value="" style="ellipse;whiteSpace=wrap;html=1;aspect=fixed;" vertex="1" parent="WIyWlLk6GJQsqaUBKTNV-1">
          <mxGeometry x="921" y="1375" width="10" height="10" as="geometry" />
        </mxCell>
        <mxCell id="VPyf_NganPNjQ0OQ-j9U-64" style="edgeStyle=orthogonalEdgeStyle;rounded=0;orthogonalLoop=1;jettySize=auto;html=1;exitX=1;exitY=0.5;exitDx=0;exitDy=0;entryX=0.5;entryY=0;entryDx=0;entryDy=0;startArrow=none;startFill=0;endArrow=classic;endFill=1;endSize=3;" edge="1" parent="WIyWlLk6GJQsqaUBKTNV-1" source="VPyf_NganPNjQ0OQ-j9U-41" target="VPyf_NganPNjQ0OQ-j9U-63">
          <mxGeometry relative="1" as="geometry" />
        </mxCell>
        <mxCell id="VPyf_NganPNjQ0OQ-j9U-65" style="edgeStyle=orthogonalEdgeStyle;rounded=0;orthogonalLoop=1;jettySize=auto;html=1;exitX=1;exitY=0.5;exitDx=0;exitDy=0;entryX=0;entryY=0.5;entryDx=0;entryDy=0;startArrow=none;startFill=0;endArrow=classic;endFill=1;endSize=3;" edge="1" parent="WIyWlLk6GJQsqaUBKTNV-1" source="VPyf_NganPNjQ0OQ-j9U-47" target="VPyf_NganPNjQ0OQ-j9U-63">
          <mxGeometry relative="1" as="geometry" />
        </mxCell>
        <mxCell id="VPyf_NganPNjQ0OQ-j9U-66" style="edgeStyle=orthogonalEdgeStyle;rounded=0;orthogonalLoop=1;jettySize=auto;html=1;exitX=1;exitY=0.5;exitDx=0;exitDy=0;entryX=0.5;entryY=1;entryDx=0;entryDy=0;startArrow=none;startFill=0;endArrow=classic;endFill=1;endSize=3;" edge="1" parent="WIyWlLk6GJQsqaUBKTNV-1" source="VPyf_NganPNjQ0OQ-j9U-53" target="VPyf_NganPNjQ0OQ-j9U-63">
          <mxGeometry relative="1" as="geometry" />
        </mxCell>
        <mxCell id="VPyf_NganPNjQ0OQ-j9U-67" value="+" style="text;html=1;strokeColor=none;fillColor=none;align=center;verticalAlign=middle;whiteSpace=wrap;rounded=0;" vertex="1" parent="WIyWlLk6GJQsqaUBKTNV-1">
          <mxGeometry x="931" y="1356.5" width="10" height="20" as="geometry" />
        </mxCell>
        <mxCell id="VPyf_NganPNjQ0OQ-j9U-68" value="+" style="text;html=1;strokeColor=none;fillColor=none;align=center;verticalAlign=middle;whiteSpace=wrap;rounded=0;" vertex="1" parent="WIyWlLk6GJQsqaUBKTNV-1">
          <mxGeometry x="911" y="1383.5" width="10" height="20" as="geometry" />
        </mxCell>
        <mxCell id="VPyf_NganPNjQ0OQ-j9U-69" value="+" style="text;html=1;strokeColor=none;fillColor=none;align=center;verticalAlign=middle;whiteSpace=wrap;rounded=0;" vertex="1" parent="WIyWlLk6GJQsqaUBKTNV-1">
          <mxGeometry x="901" y="1363.5" width="10" height="20" as="geometry" />
        </mxCell>
        <mxCell id="VPyf_NganPNjQ0OQ-j9U-70" value="+" style="text;html=1;strokeColor=none;fillColor=none;align=center;verticalAlign=middle;whiteSpace=wrap;rounded=0;" vertex="1" parent="WIyWlLk6GJQsqaUBKTNV-1">
          <mxGeometry x="1105" y="1356.5" width="10" height="20" as="geometry" />
        </mxCell>
        <mxCell id="VPyf_NganPNjQ0OQ-j9U-71" value="+" style="text;html=1;strokeColor=none;fillColor=none;align=center;verticalAlign=middle;whiteSpace=wrap;rounded=0;" vertex="1" parent="WIyWlLk6GJQsqaUBKTNV-1">
          <mxGeometry x="1075" y="1356.5" width="10" height="20" as="geometry" />
        </mxCell>
        <mxCell id="VPyf_NganPNjQ0OQ-j9U-72" value="+" style="text;html=1;strokeColor=none;fillColor=none;align=center;verticalAlign=middle;whiteSpace=wrap;rounded=0;" vertex="1" parent="WIyWlLk6GJQsqaUBKTNV-1">
          <mxGeometry x="1129" y="1365" width="10" height="20" as="geometry" />
        </mxCell>
        <mxCell id="VPyf_NganPNjQ0OQ-j9U-73" value="-" style="text;html=1;strokeColor=none;fillColor=none;align=center;verticalAlign=middle;whiteSpace=wrap;rounded=0;" vertex="1" parent="WIyWlLk6GJQsqaUBKTNV-1">
          <mxGeometry x="1149" y="1350" width="7" height="20" as="geometry" />
        </mxCell>
        <mxCell id="VPyf_NganPNjQ0OQ-j9U-74" value="" style="group" vertex="1" connectable="0" parent="WIyWlLk6GJQsqaUBKTNV-1">
          <mxGeometry x="793" y="1115" width="30" height="30" as="geometry" />
        </mxCell>
        <mxCell id="VPyf_NganPNjQ0OQ-j9U-75" value="" style="rounded=0;whiteSpace=wrap;html=1;" vertex="1" parent="VPyf_NganPNjQ0OQ-j9U-74">
          <mxGeometry width="30" height="30" as="geometry" />
        </mxCell>
        <mxCell id="VPyf_NganPNjQ0OQ-j9U-76" value="" style="group" vertex="1" connectable="0" parent="VPyf_NganPNjQ0OQ-j9U-74">
          <mxGeometry x="10.830000000000041" y="2.5" width="8.34" height="25" as="geometry" />
        </mxCell>
        <mxCell id="VPyf_NganPNjQ0OQ-j9U-77" value="" style="endArrow=classic;html=1;endSize=3;" edge="1" parent="VPyf_NganPNjQ0OQ-j9U-76">
          <mxGeometry width="50" height="50" relative="1" as="geometry">
            <mxPoint x="4.17" y="25" as="sourcePoint" />
            <mxPoint x="4.17" as="targetPoint" />
          </mxGeometry>
        </mxCell>
        <mxCell id="VPyf_NganPNjQ0OQ-j9U-78" value="" style="endArrow=classic;html=1;endSize=3;" edge="1" parent="VPyf_NganPNjQ0OQ-j9U-76">
          <mxGeometry width="50" height="50" relative="1" as="geometry">
            <mxPoint x="-8.34" y="12.5" as="sourcePoint" />
            <mxPoint x="16.68" y="12.5" as="targetPoint" />
            <Array as="points">
              <mxPoint x="8.34" y="12.5" />
            </Array>
          </mxGeometry>
        </mxCell>
        <mxCell id="VPyf_NganPNjQ0OQ-j9U-79" value="" style="endArrow=none;html=1;rounded=0;" edge="1" parent="VPyf_NganPNjQ0OQ-j9U-76">
          <mxGeometry width="50" height="50" relative="1" as="geometry">
            <mxPoint x="-8.34" y="20.833333333333336" as="sourcePoint" />
            <mxPoint x="16.68" y="4.166666666666667" as="targetPoint" />
            <Array as="points">
              <mxPoint y="20.833333333333336" />
              <mxPoint x="8.34" y="4.166666666666667" />
            </Array>
          </mxGeometry>
        </mxCell>
        <mxCell id="VPyf_NganPNjQ0OQ-j9U-80" style="edgeStyle=orthogonalEdgeStyle;rounded=0;orthogonalLoop=1;jettySize=auto;html=1;exitX=1;exitY=0.5;exitDx=0;exitDy=0;startArrow=none;startFill=0;endArrow=classic;endFill=1;endSize=3;entryX=0.5;entryY=0;entryDx=0;entryDy=0;" edge="1" parent="WIyWlLk6GJQsqaUBKTNV-1" source="VPyf_NganPNjQ0OQ-j9U-110" target="VPyf_NganPNjQ0OQ-j9U-20">
          <mxGeometry relative="1" as="geometry">
            <mxPoint x="981" y="1340" as="targetPoint" />
          </mxGeometry>
        </mxCell>
        <mxCell id="VPyf_NganPNjQ0OQ-j9U-81" value="" style="endArrow=classic;html=1;endSize=3;entryX=0;entryY=0.5;entryDx=0;entryDy=0;exitX=1;exitY=0.5;exitDx=0;exitDy=0;rounded=0;" edge="1" parent="WIyWlLk6GJQsqaUBKTNV-1" source="VPyf_NganPNjQ0OQ-j9U-123" target="VPyf_NganPNjQ0OQ-j9U-75">
          <mxGeometry width="50" height="50" relative="1" as="geometry">
            <mxPoint x="311" y="1190" as="sourcePoint" />
            <mxPoint x="601" y="1190" as="targetPoint" />
            <Array as="points">
              <mxPoint x="511" y="1293" />
              <mxPoint x="511" y="1130" />
            </Array>
          </mxGeometry>
        </mxCell>
        <mxCell id="VPyf_NganPNjQ0OQ-j9U-82" value="" style="group" vertex="1" connectable="0" parent="WIyWlLk6GJQsqaUBKTNV-1">
          <mxGeometry x="671" y="995" width="30" height="30" as="geometry" />
        </mxCell>
        <mxCell id="VPyf_NganPNjQ0OQ-j9U-83" value="" style="rounded=0;whiteSpace=wrap;html=1;" vertex="1" parent="VPyf_NganPNjQ0OQ-j9U-82">
          <mxGeometry width="30" height="30" as="geometry" />
        </mxCell>
        <mxCell id="VPyf_NganPNjQ0OQ-j9U-84" value="" style="group" vertex="1" connectable="0" parent="VPyf_NganPNjQ0OQ-j9U-82">
          <mxGeometry x="10.830000000000041" y="2.5" width="8.34" height="25" as="geometry" />
        </mxCell>
        <mxCell id="VPyf_NganPNjQ0OQ-j9U-85" value="" style="endArrow=classic;html=1;endSize=3;" edge="1" parent="VPyf_NganPNjQ0OQ-j9U-84">
          <mxGeometry width="50" height="50" relative="1" as="geometry">
            <mxPoint x="4.17" y="25" as="sourcePoint" />
            <mxPoint x="4.17" as="targetPoint" />
          </mxGeometry>
        </mxCell>
        <mxCell id="VPyf_NganPNjQ0OQ-j9U-86" value="" style="endArrow=classic;html=1;endSize=3;" edge="1" parent="VPyf_NganPNjQ0OQ-j9U-84">
          <mxGeometry width="50" height="50" relative="1" as="geometry">
            <mxPoint x="-8.34" y="12.5" as="sourcePoint" />
            <mxPoint x="16.68" y="12.5" as="targetPoint" />
            <Array as="points">
              <mxPoint x="8.34" y="12.5" />
            </Array>
          </mxGeometry>
        </mxCell>
        <mxCell id="VPyf_NganPNjQ0OQ-j9U-87" value="" style="endArrow=none;html=1;rounded=0;" edge="1" parent="VPyf_NganPNjQ0OQ-j9U-84">
          <mxGeometry width="50" height="50" relative="1" as="geometry">
            <mxPoint x="-8.34" y="20.833333333333336" as="sourcePoint" />
            <mxPoint x="16.68" y="4.166666666666667" as="targetPoint" />
            <Array as="points">
              <mxPoint y="20.833333333333336" />
              <mxPoint x="8.34" y="4.166666666666667" />
            </Array>
          </mxGeometry>
        </mxCell>
        <mxCell id="VPyf_NganPNjQ0OQ-j9U-88" style="edgeStyle=orthogonalEdgeStyle;rounded=0;orthogonalLoop=1;jettySize=auto;html=1;exitX=1;exitY=0.5;exitDx=0;exitDy=0;startArrow=none;startFill=0;endArrow=classic;endFill=1;endSize=3;" edge="1" parent="WIyWlLk6GJQsqaUBKTNV-1" source="VPyf_NganPNjQ0OQ-j9U-83" target="VPyf_NganPNjQ0OQ-j9U-25">
          <mxGeometry relative="1" as="geometry" />
        </mxCell>
        <mxCell id="VPyf_NganPNjQ0OQ-j9U-89" value="坡度补偿限幅" style="text;html=1;strokeColor=none;fillColor=none;align=center;verticalAlign=middle;whiteSpace=wrap;rounded=0;" vertex="1" parent="WIyWlLk6GJQsqaUBKTNV-1">
          <mxGeometry x="616" y="969" width="150" height="20" as="geometry" />
        </mxCell>
        <mxCell id="VPyf_NganPNjQ0OQ-j9U-90" value="前馈加速度限幅" style="text;html=1;strokeColor=none;fillColor=none;align=center;verticalAlign=middle;whiteSpace=wrap;rounded=0;" vertex="1" parent="WIyWlLk6GJQsqaUBKTNV-1">
          <mxGeometry x="702" y="1080" width="206" height="20" as="geometry" />
        </mxCell>
        <mxCell id="VPyf_NganPNjQ0OQ-j9U-91" style="edgeStyle=orthogonalEdgeStyle;rounded=0;orthogonalLoop=1;jettySize=auto;html=1;startArrow=none;startFill=0;endArrow=classic;endFill=1;endSize=3;exitX=0;exitY=0.5;exitDx=0;exitDy=0;entryX=0.5;entryY=1;entryDx=0;entryDy=0;" edge="1" parent="WIyWlLk6GJQsqaUBKTNV-1" source="VPyf_NganPNjQ0OQ-j9U-108" target="VPyf_NganPNjQ0OQ-j9U-102">
          <mxGeometry relative="1" as="geometry">
            <mxPoint x="1434.5" y="1383.5" as="sourcePoint" />
            <mxPoint x="201" y="1450" as="targetPoint" />
            <Array as="points">
              <mxPoint x="241" y="1570" />
            </Array>
          </mxGeometry>
        </mxCell>
        <mxCell id="VPyf_NganPNjQ0OQ-j9U-92" value="&lt;b&gt;反馈控制&lt;/b&gt;" style="text;html=1;strokeColor=none;fillColor=none;align=center;verticalAlign=middle;whiteSpace=wrap;rounded=0;" vertex="1" parent="WIyWlLk6GJQsqaUBKTNV-1">
          <mxGeometry x="678" y="1240" width="206" height="20" as="geometry" />
        </mxCell>
        <mxCell id="VPyf_NganPNjQ0OQ-j9U-93" value="+" style="text;html=1;strokeColor=none;fillColor=none;align=center;verticalAlign=middle;whiteSpace=wrap;rounded=0;" vertex="1" parent="WIyWlLk6GJQsqaUBKTNV-1">
          <mxGeometry x="525" y="1363.5" width="10" height="20" as="geometry" />
        </mxCell>
        <mxCell id="VPyf_NganPNjQ0OQ-j9U-94" value="-" style="text;html=1;strokeColor=none;fillColor=none;align=center;verticalAlign=middle;whiteSpace=wrap;rounded=0;" vertex="1" parent="WIyWlLk6GJQsqaUBKTNV-1">
          <mxGeometry x="534" y="1390" width="7" height="20" as="geometry" />
        </mxCell>
        <mxCell id="VPyf_NganPNjQ0OQ-j9U-95" value="参考轨迹" style="text;html=1;strokeColor=none;fillColor=none;align=center;verticalAlign=middle;whiteSpace=wrap;rounded=0;" vertex="1" parent="WIyWlLk6GJQsqaUBKTNV-1">
          <mxGeometry x="51" y="1277" width="50" height="20" as="geometry" />
        </mxCell>
        <mxCell id="VPyf_NganPNjQ0OQ-j9U-96" value="&lt;b&gt;响应延迟补偿&lt;/b&gt;" style="text;html=1;strokeColor=none;fillColor=none;align=center;verticalAlign=middle;whiteSpace=wrap;rounded=0;" vertex="1" parent="WIyWlLk6GJQsqaUBKTNV-1">
          <mxGeometry x="176" y="1240" width="160" height="20" as="geometry" />
        </mxCell>
        <mxCell id="VPyf_NganPNjQ0OQ-j9U-97" value="" style="endArrow=classic;html=1;endSize=3;" edge="1" parent="WIyWlLk6GJQsqaUBKTNV-1">
          <mxGeometry width="50" height="50" relative="1" as="geometry">
            <mxPoint x="41" y="1460" as="sourcePoint" />
            <mxPoint x="181" y="1460.5" as="targetPoint" />
          </mxGeometry>
        </mxCell>
        <mxCell id="VPyf_NganPNjQ0OQ-j9U-98" value="自车位置" style="text;html=1;strokeColor=none;fillColor=none;align=center;verticalAlign=middle;whiteSpace=wrap;rounded=0;" vertex="1" parent="WIyWlLk6GJQsqaUBKTNV-1">
          <mxGeometry x="51" y="1434" width="50" height="20" as="geometry" />
        </mxCell>
        <mxCell id="VPyf_NganPNjQ0OQ-j9U-99" style="edgeStyle=orthogonalEdgeStyle;rounded=0;orthogonalLoop=1;jettySize=auto;html=1;exitX=1;exitY=0.5;exitDx=0;exitDy=0;entryX=0.5;entryY=1;entryDx=0;entryDy=0;endSize=3;" edge="1" parent="WIyWlLk6GJQsqaUBKTNV-1" source="VPyf_NganPNjQ0OQ-j9U-102" target="VPyf_NganPNjQ0OQ-j9U-17">
          <mxGeometry relative="1" as="geometry">
            <mxPoint x="383.5999999999999" y="1390.12" as="sourcePoint" />
            <mxPoint x="581" y="1390" as="targetPoint" />
            <Array as="points">
              <mxPoint x="546" y="1458" />
            </Array>
          </mxGeometry>
        </mxCell>
        <mxCell id="VPyf_NganPNjQ0OQ-j9U-100" value="预测车速：当前实际车速与未执行的加速度控制序列产生的速度累加（每个加速度都要去掉响应延迟的影响）之和" style="text;html=1;strokeColor=none;fillColor=none;align=left;verticalAlign=middle;whiteSpace=wrap;rounded=0;" vertex="1" parent="WIyWlLk6GJQsqaUBKTNV-1">
          <mxGeometry x="397" y="1480" width="164" height="20" as="geometry" />
        </mxCell>
        <mxCell id="VPyf_NganPNjQ0OQ-j9U-101" style="edgeStyle=orthogonalEdgeStyle;rounded=0;orthogonalLoop=1;jettySize=auto;html=1;exitX=0.5;exitY=0;exitDx=0;exitDy=0;startArrow=none;startFill=0;endArrow=classic;endFill=1;endSize=3;entryX=0.5;entryY=1;entryDx=0;entryDy=0;" edge="1" parent="WIyWlLk6GJQsqaUBKTNV-1" source="VPyf_NganPNjQ0OQ-j9U-102" target="VPyf_NganPNjQ0OQ-j9U-103">
          <mxGeometry relative="1" as="geometry" />
        </mxCell>
        <mxCell id="VPyf_NganPNjQ0OQ-j9U-102" value="运动学模型" style="rounded=0;whiteSpace=wrap;html=1;" vertex="1" parent="WIyWlLk6GJQsqaUBKTNV-1">
          <mxGeometry x="181" y="1437.5" width="120" height="40" as="geometry" />
        </mxCell>
        <mxCell id="VPyf_NganPNjQ0OQ-j9U-103" value="基于预测位置做线性差值得到轨迹参考点" style="rounded=0;whiteSpace=wrap;html=1;" vertex="1" parent="WIyWlLk6GJQsqaUBKTNV-1">
          <mxGeometry x="181" y="1275" width="120" height="70" as="geometry" />
        </mxCell>
        <mxCell id="VPyf_NganPNjQ0OQ-j9U-104" value="预测后的自车位置" style="text;html=1;strokeColor=none;fillColor=none;align=left;verticalAlign=middle;whiteSpace=wrap;rounded=0;" vertex="1" parent="WIyWlLk6GJQsqaUBKTNV-1">
          <mxGeometry x="161" y="1383.5" width="60" height="20" as="geometry" />
        </mxCell>
        <mxCell id="VPyf_NganPNjQ0OQ-j9U-105" value="实际车速" style="text;html=1;strokeColor=none;fillColor=none;align=left;verticalAlign=middle;whiteSpace=wrap;rounded=0;" vertex="1" parent="WIyWlLk6GJQsqaUBKTNV-1">
          <mxGeometry x="241" y="1530" width="74" height="20" as="geometry" />
        </mxCell>
        <mxCell id="VPyf_NganPNjQ0OQ-j9U-106" value="&lt;b&gt;前馈控制&lt;/b&gt;" style="text;html=1;strokeColor=none;fillColor=none;align=center;verticalAlign=middle;whiteSpace=wrap;rounded=0;" vertex="1" parent="WIyWlLk6GJQsqaUBKTNV-1">
          <mxGeometry x="678" y="930" width="206" height="20" as="geometry" />
        </mxCell>
        <mxCell id="VPyf_NganPNjQ0OQ-j9U-107" value="加速度指令" style="text;html=1;strokeColor=none;fillColor=none;align=left;verticalAlign=middle;whiteSpace=wrap;rounded=0;" vertex="1" parent="WIyWlLk6GJQsqaUBKTNV-1">
          <mxGeometry x="1087" y="1410" width="69" height="20" as="geometry" />
        </mxCell>
        <mxCell id="VPyf_NganPNjQ0OQ-j9U-108" value="&lt;b&gt;车辆&lt;/b&gt;" style="rounded=0;whiteSpace=wrap;html=1;" vertex="1" parent="WIyWlLk6GJQsqaUBKTNV-1">
          <mxGeometry x="601" y="1540" width="360" height="60" as="geometry" />
        </mxCell>
        <mxCell id="VPyf_NganPNjQ0OQ-j9U-109" value="" style="group" vertex="1" connectable="0" parent="WIyWlLk6GJQsqaUBKTNV-1">
          <mxGeometry x="1016" y="1115" width="30" height="30" as="geometry" />
        </mxCell>
        <mxCell id="VPyf_NganPNjQ0OQ-j9U-110" value="" style="rounded=0;whiteSpace=wrap;html=1;" vertex="1" parent="VPyf_NganPNjQ0OQ-j9U-109">
          <mxGeometry width="30" height="30" as="geometry" />
        </mxCell>
        <mxCell id="VPyf_NganPNjQ0OQ-j9U-111" value="" style="group" vertex="1" connectable="0" parent="VPyf_NganPNjQ0OQ-j9U-109">
          <mxGeometry x="10.830000000000041" y="2.5" width="8.34" height="25" as="geometry" />
        </mxCell>
        <mxCell id="VPyf_NganPNjQ0OQ-j9U-112" value="" style="endArrow=classic;html=1;endSize=3;" edge="1" parent="VPyf_NganPNjQ0OQ-j9U-111">
          <mxGeometry width="50" height="50" relative="1" as="geometry">
            <mxPoint x="4.17" y="25" as="sourcePoint" />
            <mxPoint x="4.17" as="targetPoint" />
          </mxGeometry>
        </mxCell>
        <mxCell id="VPyf_NganPNjQ0OQ-j9U-113" value="" style="endArrow=classic;html=1;endSize=3;" edge="1" parent="VPyf_NganPNjQ0OQ-j9U-111">
          <mxGeometry width="50" height="50" relative="1" as="geometry">
            <mxPoint x="-8.34" y="12.5" as="sourcePoint" />
            <mxPoint x="16.68" y="12.5" as="targetPoint" />
            <Array as="points">
              <mxPoint x="8.34" y="12.5" />
            </Array>
          </mxGeometry>
        </mxCell>
        <mxCell id="VPyf_NganPNjQ0OQ-j9U-114" value="" style="endArrow=none;html=1;rounded=0;" edge="1" parent="VPyf_NganPNjQ0OQ-j9U-111">
          <mxGeometry width="50" height="50" relative="1" as="geometry">
            <mxPoint x="-8.34" y="20.833333333333336" as="sourcePoint" />
            <mxPoint x="16.68" y="4.166666666666667" as="targetPoint" />
            <Array as="points">
              <mxPoint y="20.833333333333336" />
              <mxPoint x="8.34" y="4.166666666666667" />
            </Array>
          </mxGeometry>
        </mxCell>
        <mxCell id="VPyf_NganPNjQ0OQ-j9U-115" value="" style="endArrow=classic;html=1;rounded=0;exitX=1;exitY=0.5;exitDx=0;exitDy=0;entryX=0;entryY=0.5;entryDx=0;entryDy=0;endSize=3;" edge="1" parent="WIyWlLk6GJQsqaUBKTNV-1" source="VPyf_NganPNjQ0OQ-j9U-75" target="VPyf_NganPNjQ0OQ-j9U-110">
          <mxGeometry width="50" height="50" relative="1" as="geometry">
            <mxPoint x="961" y="1390" as="sourcePoint" />
            <mxPoint x="1011" y="1340" as="targetPoint" />
          </mxGeometry>
        </mxCell>
        <mxCell id="VPyf_NganPNjQ0OQ-j9U-116" value="刹车保持限幅：&lt;br&gt;对低速情况要维持一个较小的加速度保证速度继续变换" style="text;html=1;strokeColor=none;fillColor=none;align=center;verticalAlign=middle;whiteSpace=wrap;rounded=0;" vertex="1" parent="WIyWlLk6GJQsqaUBKTNV-1">
          <mxGeometry x="961" y="1080" width="150" height="20" as="geometry" />
        </mxCell>
        <mxCell id="VPyf_NganPNjQ0OQ-j9U-117" value="延迟时间" style="text;html=1;strokeColor=none;fillColor=none;align=center;verticalAlign=middle;whiteSpace=wrap;rounded=0;" vertex="1" parent="WIyWlLk6GJQsqaUBKTNV-1">
          <mxGeometry x="51" y="1477.5" width="50" height="20" as="geometry" />
        </mxCell>
        <mxCell id="VPyf_NganPNjQ0OQ-j9U-121" style="edgeStyle=orthogonalEdgeStyle;rounded=0;orthogonalLoop=1;jettySize=auto;html=1;exitX=0.5;exitY=1;exitDx=0;exitDy=0;" edge="1" parent="WIyWlLk6GJQsqaUBKTNV-1" source="VPyf_NganPNjQ0OQ-j9U-21" target="VPyf_NganPNjQ0OQ-j9U-21">
          <mxGeometry relative="1" as="geometry" />
        </mxCell>
        <mxCell id="VPyf_NganPNjQ0OQ-j9U-122" value="" style="group" vertex="1" connectable="0" parent="WIyWlLk6GJQsqaUBKTNV-1">
          <mxGeometry x="331" y="1277" width="30" height="30" as="geometry" />
        </mxCell>
        <mxCell id="VPyf_NganPNjQ0OQ-j9U-123" value="" style="rounded=0;whiteSpace=wrap;html=1;" vertex="1" parent="VPyf_NganPNjQ0OQ-j9U-122">
          <mxGeometry width="30" height="30" as="geometry" />
        </mxCell>
        <mxCell id="VPyf_NganPNjQ0OQ-j9U-124" value="" style="group" vertex="1" connectable="0" parent="VPyf_NganPNjQ0OQ-j9U-122">
          <mxGeometry x="4.085620730620576e-14" y="2.5" width="8.34" height="25" as="geometry" />
        </mxCell>
        <mxCell id="VPyf_NganPNjQ0OQ-j9U-125" value="" style="endArrow=classic;html=1;endSize=3;" edge="1" parent="VPyf_NganPNjQ0OQ-j9U-124">
          <mxGeometry width="50" height="50" relative="1" as="geometry">
            <mxPoint x="4.17" y="25" as="sourcePoint" />
            <mxPoint x="4.17" as="targetPoint" />
          </mxGeometry>
        </mxCell>
        <mxCell id="VPyf_NganPNjQ0OQ-j9U-127" value="" style="endArrow=none;html=1;rounded=0;" edge="1" parent="VPyf_NganPNjQ0OQ-j9U-124">
          <mxGeometry width="50" height="50" relative="1" as="geometry">
            <mxPoint x="3.999999999999943" y="9.5" as="sourcePoint" />
            <mxPoint x="19.999999999999943" y="22.5" as="targetPoint" />
            <Array as="points">
              <mxPoint x="14.999999999999943" y="9.5" />
            </Array>
          </mxGeometry>
        </mxCell>
        <mxCell id="VPyf_NganPNjQ0OQ-j9U-126" value="" style="endArrow=classic;html=1;endSize=3;" edge="1" parent="VPyf_NganPNjQ0OQ-j9U-122">
          <mxGeometry width="50" height="50" relative="1" as="geometry">
            <mxPoint x="2.490000000000041" y="25" as="sourcePoint" />
            <mxPoint x="27.51000000000004" y="25" as="targetPoint" />
            <Array as="points">
              <mxPoint x="19.17000000000004" y="25" />
            </Array>
          </mxGeometry>
        </mxCell>
        <mxCell id="VPyf_NganPNjQ0OQ-j9U-134" value="" style="group" vertex="1" connectable="0" parent="WIyWlLk6GJQsqaUBKTNV-1">
          <mxGeometry x="561" y="1365" width="30" height="30" as="geometry" />
        </mxCell>
        <mxCell id="VPyf_NganPNjQ0OQ-j9U-135" value="" style="rounded=0;whiteSpace=wrap;html=1;" vertex="1" parent="VPyf_NganPNjQ0OQ-j9U-134">
          <mxGeometry width="30" height="30" as="geometry" />
        </mxCell>
        <mxCell id="VPyf_NganPNjQ0OQ-j9U-136" value="" style="group" vertex="1" connectable="0" parent="VPyf_NganPNjQ0OQ-j9U-134">
          <mxGeometry x="4.085620730620576e-14" y="2.5" width="8.34" height="25" as="geometry" />
        </mxCell>
        <mxCell id="VPyf_NganPNjQ0OQ-j9U-137" value="" style="endArrow=classic;html=1;endSize=3;" edge="1" parent="VPyf_NganPNjQ0OQ-j9U-136">
          <mxGeometry width="50" height="50" relative="1" as="geometry">
            <mxPoint x="4.17" y="25" as="sourcePoint" />
            <mxPoint x="4.17" as="targetPoint" />
          </mxGeometry>
        </mxCell>
        <mxCell id="VPyf_NganPNjQ0OQ-j9U-138" value="" style="endArrow=none;html=1;rounded=0;" edge="1" parent="VPyf_NganPNjQ0OQ-j9U-136">
          <mxGeometry width="50" height="50" relative="1" as="geometry">
            <mxPoint x="3.999999999999943" y="9.5" as="sourcePoint" />
            <mxPoint x="19.999999999999943" y="22.5" as="targetPoint" />
            <Array as="points">
              <mxPoint x="14.999999999999943" y="9.5" />
            </Array>
          </mxGeometry>
        </mxCell>
        <mxCell id="VPyf_NganPNjQ0OQ-j9U-139" value="" style="endArrow=classic;html=1;endSize=3;" edge="1" parent="VPyf_NganPNjQ0OQ-j9U-134">
          <mxGeometry width="50" height="50" relative="1" as="geometry">
            <mxPoint x="2.490000000000041" y="25" as="sourcePoint" />
            <mxPoint x="27.51000000000004" y="25" as="targetPoint" />
            <Array as="points">
              <mxPoint x="19.17000000000004" y="25" />
            </Array>
          </mxGeometry>
        </mxCell>
        <mxCell id="VPyf_NganPNjQ0OQ-j9U-142" value="" style="endArrow=classic;html=1;endSize=3;exitX=1;exitY=0.25;exitDx=0;exitDy=0;entryX=0;entryY=0.5;entryDx=0;entryDy=0;" edge="1" parent="WIyWlLk6GJQsqaUBKTNV-1" source="VPyf_NganPNjQ0OQ-j9U-103" target="VPyf_NganPNjQ0OQ-j9U-123">
          <mxGeometry width="50" height="50" relative="1" as="geometry">
            <mxPoint x="281" y="1294.71" as="sourcePoint" />
            <mxPoint x="331" y="1290" as="targetPoint" />
          </mxGeometry>
        </mxCell>
        <mxCell id="VPyf_NganPNjQ0OQ-j9U-144" value="" style="endArrow=classic;html=1;entryX=0;entryY=0.5;entryDx=0;entryDy=0;endSize=3;" edge="1" parent="WIyWlLk6GJQsqaUBKTNV-1">
          <mxGeometry width="50" height="50" relative="1" as="geometry">
            <mxPoint x="551" y="1380" as="sourcePoint" />
            <mxPoint x="561" y="1379.66" as="targetPoint" />
          </mxGeometry>
        </mxCell>
        <mxCell id="VPyf_NganPNjQ0OQ-j9U-145" value="" style="group" vertex="1" connectable="0" parent="WIyWlLk6GJQsqaUBKTNV-1">
          <mxGeometry x="726" y="1434" width="30" height="30" as="geometry" />
        </mxCell>
        <mxCell id="VPyf_NganPNjQ0OQ-j9U-146" value="" style="rounded=0;whiteSpace=wrap;html=1;" vertex="1" parent="VPyf_NganPNjQ0OQ-j9U-145">
          <mxGeometry y="1" width="30" height="30" as="geometry" />
        </mxCell>
        <mxCell id="VPyf_NganPNjQ0OQ-j9U-147" value="" style="group" vertex="1" connectable="0" parent="VPyf_NganPNjQ0OQ-j9U-145">
          <mxGeometry x="4.085620730620576e-14" y="2.5" width="8.34" height="25" as="geometry" />
        </mxCell>
        <mxCell id="VPyf_NganPNjQ0OQ-j9U-148" value="" style="endArrow=classic;html=1;endSize=3;" edge="1" parent="VPyf_NganPNjQ0OQ-j9U-147">
          <mxGeometry width="50" height="50" relative="1" as="geometry">
            <mxPoint x="4.17" y="25" as="sourcePoint" />
            <mxPoint x="4.17" as="targetPoint" />
          </mxGeometry>
        </mxCell>
        <mxCell id="VPyf_NganPNjQ0OQ-j9U-149" value="" style="endArrow=none;html=1;rounded=0;" edge="1" parent="VPyf_NganPNjQ0OQ-j9U-147">
          <mxGeometry width="50" height="50" relative="1" as="geometry">
            <mxPoint x="3.999999999999943" y="9.5" as="sourcePoint" />
            <mxPoint x="19.999999999999943" y="22.5" as="targetPoint" />
            <Array as="points">
              <mxPoint x="14.999999999999943" y="9.5" />
            </Array>
          </mxGeometry>
        </mxCell>
        <mxCell id="VPyf_NganPNjQ0OQ-j9U-150" value="" style="endArrow=classic;html=1;endSize=3;" edge="1" parent="VPyf_NganPNjQ0OQ-j9U-145">
          <mxGeometry width="50" height="50" relative="1" as="geometry">
            <mxPoint x="2.490000000000041" y="25" as="sourcePoint" />
            <mxPoint x="27.51000000000004" y="25" as="targetPoint" />
            <Array as="points">
              <mxPoint x="19.17000000000004" y="25" />
            </Array>
          </mxGeometry>
        </mxCell>
        <UserObject label="https://autowarefoundation.github.io/autoware.universe/main/control/pid_longitudinal_controller/" link="https://autowarefoundation.github.io/autoware.universe/main/control/pid_longitudinal_controller/" id="VPyf_NganPNjQ0OQ-j9U-151">
          <mxCell style="text;whiteSpace=wrap;html=1;" vertex="1" parent="WIyWlLk6GJQsqaUBKTNV-1">
            <mxGeometry x="40" y="840" width="520" height="30" as="geometry" />
          </mxCell>
        </UserObject>
        <mxCell id="VPyf_NganPNjQ0OQ-j9U-157" value="" style="endArrow=classic;html=1;" edge="1" parent="WIyWlLk6GJQsqaUBKTNV-1">
          <mxGeometry width="50" height="50" relative="1" as="geometry">
            <mxPoint x="41" y="1010" as="sourcePoint" />
            <mxPoint x="151" y="1010" as="targetPoint" />
          </mxGeometry>
        </mxCell>
      </root>
    </mxGraphModel>
  </diagram>
</mxfile>
